<?xml version="1.0" encoding="utf-8"?>
<!-- Generator: Adobe Illustrator 28.1.0, SVG Export Plug-In . SVG Version: 6.00 Build 0)  -->
<svg version="1.1" id="Layer_1" xmlns="http://www.w3.org/2000/svg" xmlns:xlink="http://www.w3.org/1999/xlink" x="0px" y="0px"
	 viewBox="0 0 1920 527" style="enable-background:new 0 0 1920 527;" xml:space="preserve">
<style type="text/css">
	.st0{fill:none;stroke:#FFFFFF;stroke-miterlimit:10;}
	.st1{fill:none;stroke:#FFFFFF;stroke-width:0.9914;stroke-miterlimit:10;}
	.st2{fill:none;stroke:#FFFFFF;stroke-width:0.9924;stroke-miterlimit:10;}
	.st3{fill:none;stroke:#FFFFFF;stroke-width:0.981;stroke-miterlimit:10;}
	.st4{fill:none;stroke:#FFFFFF;stroke-width:1.073;stroke-miterlimit:10;}
	.st5{fill:none;stroke:#FFFFFF;stroke-linejoin:round;stroke-miterlimit:10;}
</style>
<rect x="-52.5" y="-54.5" width="2014" height="634"/>
<path class="st0" d="M679.6,190.1L18,231.3c0,0-1.9,0.2-1.9,3.8c0,3.6,1.9,3.6,1.9,3.6l661.6-40.3V190.1z"/>
<polygon class="st0" points="709.3,188.9 683.5,190 679.6,190.1 679.6,197.1 709.3,196.4 "/>
<polyline class="st0" points="720.8,183.6 683.3,187.5 683.5,190 683.3,197.1 683.3,199.2 722.2,199.2 "/>
<polygon class="st0" points="720.8,179.7 722.2,202.2 725.4,202.2 724.5,179.7 "/>
<path class="st0" d="M753.9,183.6h-29.3l0.8,13.6c-0.2,0.5,30.8-0.9,30.8-0.9L753.9,183.6l0.2-2.8l21.4-1.2v7.1l-2.3,2.5l-11,1.1
	l-4.7-2.1"/>
<line class="st0" x1="734.6" y1="183.6" x2="735.5" y2="197.1"/>
<path class="st0" d="M845.6,169.3l-27.6,1.4v2.1l-42.1,1.8l-0.5-1.3l-29.2,0.4v7.1h7.8l-0.2,2.8c1.1,0,3.7,4.6,3.7,4.6l-1.4,1.8
	l1.3,2.5c0,0-22.3,0.1-22.3,0.5"/>
<line class="st0" x1="755" y1="173.3" x2="755.5" y2="180.5"/>
<polygon class="st1" points="756.2,193 758.9,244 762.2,243.6 760.2,192.9 "/>
<line class="st0" x1="761.6" y1="190.2" x2="761.6" y2="199.2"/>
<path class="st0" d="M777.5,242.5l-2-42.6l4.4-0.1c0,0,1.8,40.7,1.8,41.7L777.5,242.5z"/>
<path class="st2" d="M819.3,240l-0.8-40l3.3-0.1c0,0,3.6,39.1,3.7,39.5"/>
<path class="st0" d="M761.6,199.2l13.9,0.3v1.3l46.3-0.9v-3.7h18.7l-0.4-4.5l20,0.3v-1.9H871l-0.3,2.9h4l0.1-2.9h11.2l0.3-1.6
	l25.7-0.9l0.6-3.1l665.1-35.1c0,0,2.1-0.8,2.1-3c0-2.1-2.1-3-2.1-3l-666.6,33v-2.1h-38.1V172l-3.3,0.5v3.2h-1.1h-10.1l0.9,1.9H837
	v-1.9"/>
<polyline class="st3" points="842.5,239.5 840.4,196.2 837,196.2 838.5,239.5 "/>
<polygon class="st0" points="833.8,169.9 833.8,175.7 846.3,175.1 846.3,169.3 "/>
<polyline class="st0" points="838.8,177.6 838.8,180.8 834.7,185 834.7,196.2 "/>
<polyline class="st0" points="838.8,177.6 838.8,180.8 834.7,185 834.7,196.2 "/>
<polyline class="st0" points="851.6,177.6 851.6,186.9 865.1,186.9 865.1,175.7 "/>
<line class="st0" x1="858.5" y1="186.5" x2="858.4" y2="191.8"/>
<line class="st0" x1="851.6" y1="179" x2="865.1" y2="179"/>
<path class="st4" d="M874.4,174c0,0,0.5,16.1,0.5,16.1"/>
<polyline class="st0" points="886.5,174.5 885.8,179 884.1,179 884.1,185.8 886.7,185.8 886.4,188.5 "/>
<line class="st0" x1="886.7" y1="185.8" x2="912.7" y2="184.5"/>
<line class="st5" x1="886.7" y1="185.8" x2="912.7" y2="184.5"/>
<line class="st0" x1="910.8" y1="177.6" x2="885.5" y2="178.5"/>
<line class="st0" x1="894.3" y1="178.5" x2="894.3" y2="185"/>
<line class="st0" x1="898.7" y1="178.5" x2="898.7" y2="185.1"/>
<line class="st0" x1="905.1" y1="178.5" x2="905.1" y2="185.1"/>
<line class="st0" x1="909.8" y1="178.1" x2="909.8" y2="184.5"/>
<path class="st0" d="M784.8,200.8c0,0-0.7,3.6,0,3.6s27.6-0.8,27.6-0.8l-0.7-3.5"/>
<polyline class="st0" points="786.3,204.4 787.5,227.3 812.4,226.5 811.4,203.6 "/>
<path class="st0" d="M512.1,360.1l8.7-19.9c-7.1,0.1-10.3,0.1-11.9-0.1l-12.4,19.9H512.1z"/>
<path class="st0" d="M507.1,337.5c0.4-0.5,1.1-0.7,1.7-0.5c0.7,0.1,3.5,0.2,7.1,0.1c-2.5-0.6-4.8-1.5-5.5-2.8
	c-0.3-0.5-0.4-1-0.3-1.6L507.1,337.5z"/>
<path class="st0" d="M492.4,362.4C492.4,362.4,492.4,362.4,492.4,362.4c-0.3-0.5-0.3-1.1,0-1.6l11.4-18.3l-12.6,19.9
	C491.6,362.4,492,362.4,492.4,362.4"/>
<path class="st0" d="M788.5,304.9L788.5,304.9c-150.4-1.7-177.9-2.3-183.3-2.7c-0.5,0.4-1.5,0.9-5.1,0.9c-1.2,0-2.6-0.1-4.3-0.2
	c-0.5,0-0.9-0.3-1.2-0.7l-2.6-4.1l-35.9,0.3l-1,8.2h1c0.8,0,1.5,0.7,1.5,1.5v3.5h5.6c0-2.2,0-3.4,0-3.5c0-0.4,0.2-0.8,0.5-1.1
	l4.7-4.2l2.1,2.3l-4.2,3.8c0,1.9,0,3.8-0.1,5.8h6.9l-0.3-0.3l2.2-2.2c0.3-0.3,0.7-0.5,1.1-0.5h107.8c0.9,0,1.5,0.7,1.5,1.5v1.5h1.6
	v-1.5c0-0.9,0.7-1.5,1.6-1.5h18.1v-1c0-0.8,0.7-1.5,1.5-1.5h4.8v-1c0-0.8,0.7-1.5,1.5-1.5h94.4c0,0,0.1,0,0.1,0l-0.5-1.1
	c-2.5,0.1-4.9,0.2-7.1,0.2C796.6,305.7,792.3,305.4,788.5,304.9"/>
<path class="st0" d="M639,300c-1.3-1-2.7-1.8-3.6-1.8c-2.4-0.1-23.1,0-31.1,0c0.3,0.4,0.6,0.8,0.8,1.1
	C606.3,299.4,619.5,299.7,639,300"/>
<path class="st0" d="M601.9,300c-3.8-5.5-12.2-16-14.4-16.9h-1.4l10.7,16.8C598.6,300.1,600.6,300.1,601.9,300"/>
<path class="st0" d="M768.8,249.4c-1.7,5.1-0.5,33.3,0.1,44.4c1.2,1.6,9.3,10.1,39,8.7v-62.3c-7.9,0.3-17.1,0.8-27.3,1.7
	C776,243.4,769.9,246,768.8,249.4"/>
<path class="st0" d="M563.3,314.8h-46.6L485,366.5l31.8-50.1c0.3-0.5,0.8-0.7,1.3-0.7h37.3c2.3,0,3.6,0.2,4.1,1.4
	c0.1,0.3,0.2,0.7,0.1,1v67.4c0,0.4-0.2,0.8-0.5,1.1c-0.3,0.3-0.7,0.5-1.1,0.5h0c0,0-19.8-0.1-39.6-0.3c-9.9-0.1-19.8-0.2-27.3-0.2
	c-13.3-0.1-13.3-0.1-13.8-1.1c-0.2-0.4-0.3-0.6-0.2-5.9l-2,3.3l-0.7,42.7c5.5,0.1,25,0.3,44.5,0.5c11.5,0.1,23,0.3,31.6,0.4
	c4.3,0.1,7.9,0.1,10.4,0.2c0.8,0,1.6,0,2.2,0c-0.4-4.7-0.6-18.2-0.3-58.9C563,346.5,563.2,325.2,563.3,314.8 M550.1,398.1
	c-1.6,0-2.9-1-3.5-2.4h-7v-3.1h7.2c0.6-1.2,1.9-2,3.3-2c2.1,0,3.7,1.7,3.7,3.7C553.9,396.5,552.2,398.1,550.1,398.1"/>
<path class="st0" d="M710,313.2c0,0.8-0.7,1.5-1.5,1.5h-18.1v1.5c0,0.9-0.7,1.5-1.5,1.5h-3.2v39.9H717v-45.4H710V313.2z"/>
<path class="st0" d="M627.6,399.7c6.3,0,11.3-5.1,11.3-11.3v-53.7c0-6.3-5.1-11.3-11.3-11.3s-11.3,5.1-11.3,11.3v53.7
	C616.3,394.6,621.4,399.7,627.6,399.7"/>
<path class="st0" d="M550.1,393.7c-0.4,0-0.7,0.3-0.7,0.7c0,0.3,0.3,0.7,0.7,0.7c0.4,0,0.7-0.3,0.7-0.7
	C550.8,394,550.5,393.7,550.1,393.7"/>
<path class="st0" d="M682.5,314.8h-35.9v96.7h35.9V314.8z M648.8,334.6c0-8,6.5-14.4,14.4-14.4c8,0,14.4,6.5,14.4,14.4v53.7
	c0,8-6.5,14.4-14.4,14.4c-8,0-14.4-6.5-14.4-14.4V334.6z"/>
<path class="st0" d="M741.5,259.1h23.4c0.1-4.9,0.4-8.9,1-10.7c0.7-2.3,2.8-4.2,5.2-5.7c-6.6,0.6-13.5,1.4-20.8,2.2
	c-5.2,0.6-11,1.4-17.3,2.3v17.2C735.1,260.7,739,259.3,741.5,259.1"/>
<path class="st0" d="M663.3,399.7c6.3,0,11.3-5.1,11.3-11.3v-53.7c0-6.3-5.1-11.3-11.3-11.3c-6.3,0-11.3,5.1-11.3,11.3v53.7
	C651.9,394.6,657,399.7,663.3,399.7"/>
<path class="st0" d="M566,422.1h3.6V317.8h-3.3C565.9,356.2,565.6,405.6,566,422.1"/>
<path class="st0" d="M564.8,426.6c0.3,0,0.6,0.1,0.8,0.2C565.4,426.7,565.1,426.6,564.8,426.6"/>
<path class="st0" d="M572.7,410.3h70.9v-95.5h-33.8v90.4c0,0.8-0.7,1.5-1.6,1.5h-35.5V410.3z M613.2,334.6c0-8,6.5-14.4,14.4-14.4
	c8,0,14.4,6.5,14.4,14.4v53.7c0,8-6.5,14.4-14.4,14.4c-8,0-14.4-6.5-14.4-14.4V334.6z"/>
<polygon class="st0" points="576.9,314.8 575.2,316.5 574.1,315.4 574.1,317.8 572.7,317.8 572.7,403.6 606.7,403.6 606.7,314.8 "/>
<path class="st0" d="M553.1,334.9V321h-32.6c-2,3.2-6,9.7-7.3,12c1.1,0.7,4.5,1.5,7.8,1.9H553.1z"/>
<path class="st0" d="M395.5,422.5c-1.1-1.1-6-6.8-2.9-20.5c2.4-10.9,12.1-16.1,17.9-19.2c1.2-0.7,2.5-1.3,3.3-1.9c0,0,0,0,0,0
	c0.4-0.3,0.7-0.5,0.9-0.7c0.6-0.8,1-1.6,1.3-2.4c-13.2,5.9-26.9,12.4-32.1,16.1c-12.4,8.8-18.4,16.9-18.4,24.9
	c0,7.2,0,22.1,45.1,33.7c5.1,1.3,20.9,5,43.9,7.6l1.5-3C414.3,450.7,397.2,425.2,395.5,422.5 M386.6,404.9c-1.5,2.7-3.8,5-5.7,5
	c-0.4,0-0.8-0.1-1.2-0.3c-0.6-0.4-1.6-1.4-1.2-3.9c0.2-1.3,0.9-2.9,1.7-4.4c1.9-3.2,4.7-5.9,6.9-4.6
	C389.4,397.9,388.5,401.7,386.6,404.9"/>
<path class="st0" d="M539.9,441.7c-0.2-1.8,0.3-3.4,1.5-4.7c2.8-3,8.8-3.6,12.4-3.6c-3-1.6-6-3.3-7.1-4c-20-0.3-52.3-0.7-72.9-0.9
	l-16.1,32.1c5.2,0.5,10.6,1,16.4,1.4c28.9,1.9,61.6,2.6,88.1,2.8V456C550.1,451.3,540.5,445.9,539.9,441.7 M486.1,454.1
	c-4.2,0-7.6-3.4-7.6-7.6c0-4.2,3.4-7.6,7.6-7.6s7.6,3.4,7.6,7.6C493.7,450.7,490.3,454.1,486.1,454.1"/>
<path class="st0" d="M472,383.8c-21-0.4-53.4-0.7-56.6-0.1c-0.9,0.6-2.1,1.2-3.5,2c-5.7,3-14.2,7.6-16.3,17.1
	c-2.9,13,2.1,17.6,2.1,17.6c0.1,0.1,0.2,0.2,0.3,0.4c0,0.1,4.3,7,13.9,14.6c8.7,6.9,23.6,15.7,45.5,18.9l13.9-27.7L472,383.8z"/>
<path class="st0" d="M565.3,464.8c9.8,0.1,18.7,0.1,26.1,0.1c-8.2-1.8-17.6-4.5-26.1-7.6V464.8z"/>
<path class="st0" d="M486.1,442c-2.5,0-4.5,2-4.5,4.5c0,2.5,2,4.5,4.5,4.5s4.5-2,4.5-4.5C490.6,444,488.6,442,486.1,442"/>
<path class="st0" d="M613.9,458.2v6.4h0.2l0.4,0.3c0,0,3.2,2.1,4.7,3.2c0.1,0,0.2,0.1,0.3,0.1c0.9-4.9,2.2-7.7,3.4-9.4
	C620,458.2,616.7,457.8,613.9,458.2"/>
<path class="st0" d="M556.7,436.6c-2.9-0.2-10.6-0.1-13.1,2.6c-0.6,0.6-0.8,1.3-0.6,2.2c0.8,5.9,42,21.7,62.6,22.5l0,1
	c2.2,0,4,0,5.3-0.1v-4.8l-1.6,1.3c-0.3,0.2-0.6,0.3-0.9,0.3c-0.9,0.1-4.1,0.2-6.9,0.2c-1.7,0-3.3-0.1-4.1-0.3
	c-1.3-0.3-2.3-1-2.7-1.9c-0.7-1.5,0-3.1,0.3-3.6c1.3-2.9,4.6-2.8,7.6-2.5c2.9,0.3,6.8,2,8.3,2.7v-3.8c-1.7-1-6.5-3.7-14.1-7
	C589.7,442.5,576.5,436.8,556.7,436.6"/>
<path class="st0" d="M626.4,459.6c-0.7,0.6-2.7,2.7-3.9,9.5c1,0.2,2.1,0.4,3.1,0.6l0.1,0c0.8-4.6,2.1-7.5,3.4-9.2
	C628.5,460.3,627.6,460,626.4,459.6"/>
<path class="st0" d="M597.7,457.4c-0.3,0.6-0.3,0.9-0.3,1c0,0,0.2,0.1,0.6,0.2c1.2,0.3,6.3,0.2,9.6,0l0.2-0.2
	c-1.7-0.7-3.9-1.5-5.6-1.7C598.6,456.3,598,456.9,597.7,457.4"/>
<path class="st0" d="M447.8,363.4c-0.3,0.3-0.5,0.5-0.7,0.7c2.7,1.5,7.1,4.2,14.4,8.8C455.9,368.9,450.3,365,447.8,363.4"/>
<path class="st0" d="M552.2,305.2l0.8-6.7l-11.7,0.1l0.2,1.5l-2.1-0.5c-0.1,0-5.2-0.8-12.2,0c-4.7,0.6-9.6,1.6-16.4,5.7
	C520.2,305.3,538.5,305.2,552.2,305.2"/>
<path class="st0" d="M509.9,316.5c0.8,3.1-1.8,6.2-2.5,7l-34.9,55.3c-0.2,0.3-0.4,0.5-0.7,0.6c0.4,0.3,0.8,0.5,1.2,0.8l41.4-67.7
	c0.3-0.5,0.8-0.7,1.3-0.7h38.8v-1.9h-50.3c-0.9,0.7-1.7,1.4-2.7,2.1c1.1,0.2,2.3,0.4,3.7,0.8C507.9,313.4,509.4,314.7,509.9,316.5"
	/>
<path class="st0" d="M583.2,284.4l-18.4-0.3c-0.8,0-1.5-0.7-1.5-1.5v-0.9c0-0.9,0.7-1.5,1.5-1.5h22.8c1,0.1,2.6,0.2,9.7,8.9
	c1.7,2,3.3,4.2,4.7,6.1c5.3,0,30.6-0.1,33.4,0c3.2,0.1,7,3.6,8.3,5c23.9,0.3,55.7,0.8,86,1.1v-53.4c-62.9,9.1-170,29.5-179,37.8
	c-5.2,4.8-7.6,8-8.7,9.9l47.9-0.4L583.2,284.4z"/>
<path class="st0" d="M766,295.1c-0.1-0.2-0.2-0.4-0.2-0.7c-0.1-1.2-0.3-5.1-0.5-10.3h-24.1c-0.1,0-0.1,0-0.2,0c-0.1,0-5.4-0.7-8-6.3
	v23.4c15,0.2,29.5,0.3,42.4,0.5C768.2,298.8,766.1,295.3,766,295.1"/>
<path class="st0" d="M468,380.6c-9-5.6-20.1-12.4-24.1-14.7c-4,1.7-13.7,5.7-24.3,10.4c-0.2,1.1-0.7,2.6-1.4,4.2
	C423.9,380.2,437,380.1,468,380.6"/>
<path class="st0" d="M504.9,321.6c0.1-0.1,0.1-0.2,0.2-0.2c0.7-0.8,2.2-2.9,1.8-4.1c-0.2-0.8-1.4-1.3-2.4-1.6c-3.1-0.9-5-1-6.2-0.9
	c-0.4,0.4-0.9,0.8-1.3,1.2c-12.4,11.4-37.6,36-47,45.2c3.2,2,9.1,6.2,20.8,14.6L504.9,321.6z"/>
<path class="st0" d="M383,402.8c-0.9,1.6-1.3,2.8-1.4,3.6c0.6-0.5,1.5-1.4,2.4-3c0.9-1.6,1.3-2.8,1.4-3.6
	C384.8,400.3,383.9,401.3,383,402.8"/>
<path class="st0" d="M741.6,262.2c-0.7,0.1-7.3,0.8-6.9,9.2c0.4,8.4,6,9.5,6.6,9.6h23.9c-0.2-5.9-0.4-12.8-0.3-18.8H741.6z"/>
<path class="st0" d="M480.2,379.9c0,1.2-0.1,2.4-0.1,3.3c8.5,0.2,55.6,0.5,76.3,0.6v-65.1c-0.1,0-0.3,0-0.4,0
	c0.1,0.2,0.2,0.5,0.2,0.8v18.1h-1.5v0.5h-30c0.1,0.4,0.1,0.8,0,1.1l-5.5,12.5l6.1-12.6c0.3-0.5,0.8-0.9,1.4-0.9h23.6v3.1h-22.6
	l-9.2,19.1l26.1-0.4c0.4,0,0.8,0.2,1.1,0.4c0.3,0.3,0.5,0.7,0.5,1.1v2.3c0,0.8-0.7,1.5-1.5,1.5c-1.4,0-23.9,0.1-40,0.1
	c-7.1,0-12.9,0-15.2,0L480.2,379.9z"/>
<path class="st0" d="M1528.6,372c-0.4-7-0.1-11.1,0.4-13.6c-0.8-0.1-1.6-0.3-2.4-0.4c-4.4-0.8-45.3-7-97-14.8
	c-12.1-1.8-24.6-3.7-37.2-5.6c-0.6,3.9-1.4,11.3-0.9,16L1528.6,372z"/>
<path class="st0" d="M720.1,450h161.8V315.4l-161.8-0.5V450z M805.2,329.2c0-3.4,2.8-6.2,6.2-6.2h54.1c3.4,0,6.2,2.8,6.2,6.2v70
	c0,3.4-2.8,6.2-6.2,6.2h-54.1c-3.4,0-6.2-2.8-6.2-6.2V329.2z M727.9,329.2c0-3.4,2.8-6.2,6.2-6.2h54.1c3.4,0,6.2,2.8,6.2,6.2v70
	c0,3.4-2.8,6.2-6.2,6.2h-54.1c-3.4,0-6.2-2.8-6.2-6.2V329.2z M723.8,409.4h12.8c1.4,0,2.6,1.2,2.6,2.6c0,1.4-1.2,2.6-2.6,2.6h-12.8
	c-1.4,0-2.6-1.2-2.6-2.6C721.2,410.5,722.4,409.4,723.8,409.4"/>
<path class="st0" d="M1586,370.8c-7.1-5.6-17.3-13.5-20.2-15.6l-1.2,0.8v23.1l14.5,1.6L1586,370.8z"/>
<path class="st0" d="M1389.3,337.2c-57.5-8.7-116.9-17.7-146.1-22.4v18.9l145.1,19.5C1387.9,348.1,1388.7,341,1389.3,337.2"/>
<path class="st0" d="M1545,379.3c4.9,0.7,8.2,2.3,9.8,4.6c0.5,0.7,0.8,1.5,0.9,2.1h28.6l19.1-24.2l-8.1-7.3l-17.6-15.1
	c-5.7,6.2-9.6,10.4-11.1,11.8c-0.2,0.2-0.5,0.4-0.7,0.6c0.1,0,0.2,0,0.3,0c0.3,0.1,1.2,0.4,22.8,17.4c0.6,0.5,0.8,1.4,0.3,2.1
	l-8.3,11.9c-0.3,0.4-0.8,0.7-1.3,0.7c-0.1,0-0.1,0-0.2,0l-16.8-1.8c-0.8-0.1-1.4-0.7-1.4-1.5v-25.3c-8.8,5.2-20,5-29.5,3.7
	c-0.5,2.3-1,7.4,0,18.3C1533.6,377.6,1537.4,378.2,1545,379.3"/>
<polygon class="st0" points="1142.9,420.5 1146.3,420.5 1146.3,417.9 1145.7,416.9 1143.6,416.9 1142.9,417.7 "/>
<path class="st0" d="M1151,328.9c-2,1-3.6,1.6-4.9,1.8l0,7.4c0.5,0.3,1.8,0.8,4.9,1.4c6.2,1.2,355.6,36.2,377.9,38.5
	c-0.1-1-0.2-1.9-0.2-2.8l-285.5-38.4v0.2c0,0.5-0.2,0.9-0.5,1.2c-0.3,0.2-0.6,0.4-1,0.4c-0.1,0-0.1,0-0.2,0
	C1208.7,334.1,1155.1,327.4,1151,328.9"/>
<path class="st0" d="M1149.7,326.1c0.9-0.4,3.7-0.5,7.9-0.3l0-0.1c15.9-4.3,71.6,4.5,82.6,6.3v-17.7c-3.1-0.5-5.8-1-8-1.3
	c-42.3-7.1-57.7-14.5-59.6-15.5c-1.6-0.4-6.8-2.1-26.3-8.7l0,38.7C1146.8,327.3,1147.9,326.9,1149.7,326.1"/>
<path class="st0" d="M1182.5,328c21.6,2.4,47.6,5.9,57.7,7.2v-0.2C1233.7,334.1,1204.9,329.5,1182.5,328"/>
<path class="st0" d="M1752.2,198.2c-0.2,0-0.5-0.1-0.7-0.2c-0.2-0.1-0.4-0.3-0.5-0.4c0,1.2,0,2.2,0,2.9
	c17.9-3.2,40.4-22.5,43.2-25.4c0.2-0.3,0.7-1.5,0.4-3.2c-0.2-1.2-0.8-2.9-2.7-4.2c-0.2-0.2-0.4-0.3-0.5-0.6
	c-0.1-0.1-6.7-12.1-31.2-18.8l-0.7,0c-1.8-0.1-2.9-0.1-2.9-0.1h-0.4l-0.3-0.2c0,0-1.7-0.8-4.5-1.7v0l-0.2-0.1c0,3.8,0,7.9,0,12.1
	c0.1-0.2,0.3-0.3,0.5-0.4c1-0.5,1.9,0.1,2.2,0.3c0.8,0.5,19,9.7,31,15.8c0.5,0.2,0.8,0.7,0.8,1.3c0,0.5-0.2,1.1-0.7,1.4L1753,198
	C1752.7,198.2,1752.5,198.2,1752.2,198.2"/>
<path class="st0" d="M1146.1,425.3c0.9-0.3,1.5-1,1.9-1.7c-0.1,0-0.1,0-0.2,0h-1.8V425.3z"/>
<path class="st0" d="M1761.7,143.3c0.1-1.1,0.1-2.2,0.1-2.9c-0.1,0-0.2,0-0.3,0l-1.5,0v-12.7c-2.5,0-5-0.1-6.4,0l0.2,10.8h0v2.1
	l-1.3,0.1c0,0.8,0,1.8,0,2.7H1761.7z"/>
<path class="st0" d="M1705.2,151.8l-124.2,2.5c-0.2,0-0.8,0.8-1.1,3.1l0,0.1c-0.3,3.2,0,7.6,0.3,10.2c0.3,3.5,2.6,7.4,3.6,8.9h73.6
	l11.2-4.2h36.6v-3.7h6l0.2-1.4c-0.5-3.5-0.6-8.7,1.1-13.6h-7.4V151.8z"/>
<path class="st0" d="M1753.5,161.7c0,4.7,0.1,24.6,0.2,32.1l27.2-18.1C1771.3,170.8,1757.9,164,1753.5,161.7"/>
<path class="st0" d="M1735.5,201.1c-8.4-5.4-13.7-11.1-17-16.1c-0.7,0.8-2.9,3.2-6.3,6.9c3.4,3,12,10.1,18.2,15.1L1735.5,201.1z"/>
<path class="st0" d="M1733.7,141.1c7.2-0.5,12.3,0.6,15,1.5v-7.3h1.9l-0.2-10.5v0l-2.3-113.7c0-0.2-0.8-0.8-3.1-1.1l-0.1,0
	c-3.2-0.3-7.6,0-10.2,0.3c-3.5,0.3-7.4,2.6-8.9,3.6v73.6l4.2,11.2v36.6h3.7V141.1z"/>
<path class="st0" d="M1722.3,204.4c-4.4-3.6-9.5-7.9-12.2-10.3c-25.2,27.8-99.4,109.5-130.2,143l16.4,14L1722.3,204.4z"/>
<path class="st0" d="M1737.4,198.7c3,1.9,6.6,2.5,10.5,2.3c-0.1-6.9-0.1-32.8,0-55.3c-1.6-0.5-4.5-1.2-8.4-1.4l-5,0.4
	c-3.3,0.3-6.5,0.9-9.5,2c-3.6,1.2-6.4,3.5-8.1,6.7l-2.2,4c-0.2,1.1-0.4,2.2-0.4,3.3l0.4,5.7c0.1,1.4,0.3,2.8,0.5,3.9
	c0.1,0.2,0.1,0.5,0.2,0.8C1716.9,176,1720.3,187.9,1737.4,198.7"/>
<path class="st0" d="M1515.6,412.5h18.4c-1.2-6.7-2.2-12.7-3-18h-15.4V412.5z"/>
<path class="st0" d="M978.5,273.1c-0.4,16.6,19.6,23.9,21.8,24.6l23.3,0.5c1.5-0.3,15.5-2.7,29.3-6.9c18.4-5.5,28.5-11.5,28.4-17
	c0-3.2-3.9-9.7-29.3-17.6c-7.1-2.2-14.1-4-19.7-5.3c-5.6-0.9-9.6-1.2-11.5-1.3c-5.5-0.3-14.6-0.6-24.6-0.7
	C991.1,251.8,978.8,259.1,978.5,273.1"/>
<path class="st0" d="M720.1,310.7v1.1l257.9,0.7c0.9-0.4,3.6-0.3,12.1-0.2c5.1,0.1,11.6,0.2,18.4,0.3v-2.9H719.7
	C719.9,310,720.1,310.3,720.1,310.7"/>
<path class="st0" d="M929.6,306.7v-1.1c0-0.1,0-0.1,0-0.2c-7-0.4-29.3-1.7-101.8-6.2l-4.5,0.1l0-0.9h-1.6v-58.5
	c-3.3,0.1-6.9,0.2-10.9,0.3V304c0,0.1,0,0.1,0,0.2c1.1,0.4,2.7,1.2,5,2.5H929.6z"/>
<path class="st0" d="M937.9,245.9l3.1,0.3l-6.6,57.7h2.1c0.2,0,0.4,0,0.6,0.1c0.4,0.1,2.6,0.3,12.9-0.1c9.3-0.4,11.7-0.9,12.2-1
	c0.2-0.2,0.5-0.3,0.8-0.3c52.6-1.9,83.2,4.8,88.1,10.1c0.2,0.3,0.4,0.5,0.5,0.8c41.3,5.6,53.8,7.3,57.6,7.8l-0.3-45
	c-6-0.4-20.7-1.3-24.5-1.5c-1.2,15.9-54.3,25.3-60.4,26.3c-0.1,0-0.2,0-0.3,0h0l-23.7-0.5c-0.1,0-0.3,0-0.4-0.1
	c-0.2-0.1-6.2-2-12.2-6.3c-8.1-5.8-12.2-13.2-12-21.5c0.3-11.8,8.2-19.5,14.7-23.7c-11.2-0.2-22.9-0.2-31.4-0.3l-2.3,0l1.2-3
	c0.1-0.5,0.8-3.4,1-6.9l0-0.4c0.3-5-0.5-8.9-2.3-11.2l-0.2-0.2l-0.1-0.3c-0.7-2.5-16.6-3.5-34.2-2.1c-0.2,0-2.1,0.3-2.7,2.8
	c-0.8,3.7-1.8,9.9-1.8,10l-0.2,1.3h-1.3c-6.4,0-10.7,0.4-13.5,0.8l7.4,0.6l-7.7,1.8l3.4,1.9l-7.3-0.6c-27.4-2.3-56.2-3.6-56.5-3.6
	c-0.1,0-3.8-0.2-10.5-0.2l-0.4,56.5c33.7,2.1,91.7,5.6,100.7,6.1L937.9,245.9z"/>
<path class="st0" d="M828.1,239.7c-1,0-2.1,0-3.2,0v56.4l2.8-0.1L828.1,239.7z"/>
<polygon class="st0" points="1143,335.4 1143,330.7 1115.6,330.9 "/>
<path class="st0" d="M734.1,402.2h54.1c1.7,0,3.1-1.4,3.1-3.1v-70c0-1.7-1.4-3.1-3.1-3.1h-54.1c-1.7,0-3.1,1.4-3.1,3.1v70
	C731,400.9,732.3,402.2,734.1,402.2"/>
<path class="st0" d="M1005.2,315.7l-24.1-0.1C989.3,315.8,997.7,315.8,1005.2,315.7"/>
<path class="st0" d="M931.1,447.8V315.5l-46.2-0.1v132.5C893.2,447.9,912.4,447.8,931.1,447.8"/>
<path class="st0" d="M811.4,402.2h54.1c1.7,0,3.1-1.4,3.1-3.1v-70c0-1.7-1.4-3.1-3.1-3.1h-54.1c-1.7,0-3.1,1.4-3.1,3.1v70
	C808.3,400.9,809.7,402.2,811.4,402.2"/>
<path class="st0" d="M1122.2,325.5c4.2,0,7.6-4.4,7.6-9.9c0-5.4-3.4-9.8-7.6-9.8s-7.6,4.4-7.6,9.8
	C1114.5,321,1118,325.5,1122.2,325.5"/>
<path class="st0" d="M1045.7,319.4l63.7,10.5c-0.1-0.2-0.1-0.3-0.1-0.5l0-4.8c-6-0.8-39-5.3-57.9-7.9
	C1050.3,318,1048.2,318.8,1045.7,319.4"/>
<path class="st0" d="M1122.2,302.7c5.9,0,10.7,5.8,10.7,12.9c0,5.5-2.9,10.2-6.9,12.1l17.1-0.1l0-39.8c-9.2-3.1-19.8-6.7-31-10.5
	l0.2,33.6C1113.8,306.1,1117.6,302.7,1122.2,302.7"/>
<path class="st0" d="M1112.3,327.8l6.2-0.1c-2.8-1.2-5.1-3.9-6.3-7.3L1112.3,327.8z"/>
<path class="st0" d="M1011.5,312.7c1,0,2.1,0,3.1,0.1c1.5,0,3,0.1,4.5,0.1c-2.4-0.2-5-0.3-7.6-0.3V312.7z"/>
<path class="st0" d="M963.4,305.8c-0.7,0.3-2.1,0.6-5.4,0.8h51.9c0.8,0,1.5,0.7,1.5,1.5v1.2c8.7,0.1,18.5,0.8,21.2,3.7
	c5.5,0.1,10.3,0.2,13.5,0.3C1038.3,309.9,1013,304.1,963.4,305.8"/>
<path class="st0" d="M1084,271.7c0.7,0.1,7.1,0.5,14.3,0.9c-6.3-2.2-12.7-4.5-18.8-6.7C1081.7,267.8,1083.2,269.7,1084,271.7"/>
<path class="st0" d="M1032.4,317.2c5.1,0.1,9.3-0.3,12.2-0.8c-3.8-0.1-7.8-0.2-11.8-0.2c-0.4,0.3-1,0.5-1.8,0.8L1032.4,317.2z"/>
<path class="st0" d="M633.1,460.8c-0.8,0.5-3.5,2.9-4.5,11.4l-0.2,0c0.7,0.7,1.5,1.4,2,1.7c0.8,0.4,3.7,0.7,6.2,0.8
	c0.2-3.1,2.2-8.4,3.2-10.9C638.4,462.8,635.7,461.2,633.1,460.8"/>
<path class="st0" d="M1420.7,447.8c5.3,1.5,18,4.5,26.2,3c1-0.2,3.6-0.7,7.4-1.4l0.5-0.1l58.7,30.3c8.9,3.9,13.6,6,16,7.3
	c0.2-0.4,0.4-0.8,0.7-1.1l-14.9-10c-1.4-0.9-2.6-1.7-3.6-2.3l-0.7-0.5v-4.6h-1.7v-9.4h1.4v-0.2h-0.8v-2h-9.8v2h-1.3v0.2h1.3v8.8
	l-16.3-9.7l8.9-16.3l0.7-0.1c12.6-2.4,26.3-5.1,40.4-7.9l-95.5-1.2C1433.7,440.1,1424.8,445.5,1420.7,447.8 M1488.6,442.7l-7.7,10.2
	l2.4,1.5l-1.6,2.7l-16.5-9.8L1488.6,442.7z"/>
<polygon class="st0" points="1473.8,448.7 1478.2,451.4 1481.3,447.3 "/>
<polygon class="st0" points="1178,385.1 1196.7,397.3 1213.5,371.9 1195.2,359.9 "/>
<path class="st0" d="M1621.2,416.8c32.5-6.4,56.7-11.2,59-11.7c5.1-1.2,8.1-3,8.5-5.1c0.5-2.5-2.4-6.1-7.5-9.5
	c-7.6-5.1-23.5-16.8-27.2-19.5C1643.4,385.7,1626.2,409.9,1621.2,416.8"/>
<polygon class="st0" points="1497,462.2 1496.6,462.2 1497,462.5 "/>
<path class="st0" d="M1514.1,415.6c-0.9,0-1.5-0.7-1.5-1.5V393c0-0.9,0.7-1.5,1.5-1.5h16.5c-0.5-3.8-1-7.3-1.3-10.4
	c-21.1-2.1-372.4-37.3-378.8-38.6c-1.9-0.4-3.3-0.7-4.3-1.1l0,72.4h0.4c0.5,0,1.1,0.3,1.3,0.8l1.3,2.2c0.1,0.2,0.2,0.5,0.2,0.8v1.7
	h1c0.4,0,0.8,0.2,1.1,0.5c0.3,0.3,0.5,0.7,0.4,1.1c-0.1,2.5-1.6,6.9-5.8,7.7v4.1l289.4-1.2c0.2-0.3,0.4-0.6,0.5-0.8
	c0.3-0.5,0.8-0.8,1.4-0.8l100.2,1.2c-1.1-5.5-2.1-10.6-3-15.3H1514.1z M1217,372.3l-18.6,28c-0.3,0.5-0.8,0.7-1.3,0.7
	c-0.3,0-0.6-0.1-0.8-0.2l-21.3-13.9c-0.3-0.2-0.6-0.6-0.7-1c-0.1-0.4,0-0.8,0.2-1.2l18.9-27.8c0.5-0.7,1.4-0.9,2.1-0.4l20.9,13.7
	c0.3,0.2,0.6,0.6,0.7,1C1217.3,371.6,1217.2,372,1217,372.3 M1378.4,409.4c0,1.7-1.4,3.1-3.1,3.1h-13.2c-1.7,0-3.1-1.4-3.1-3.1v-5.4
	c0-1.7,1.4-3.1,3.1-3.1h13.2c1.7,0,3.1,1.4,3.1,3.1V409.4z"/>
<polygon class="st0" points="1096.5,389.3 1096.5,400.9 1111.4,400.9 1111.5,389.3 "/>
<path class="st0" d="M1137.6,420.7c0-0.8,0.7-1.5,1.5-1.5h0.7v-2.1c0-0.3,0.1-0.7,0.3-1l1.4-1.8c0.3-0.4,0.7-0.6,1.2-0.6h0.3l0-74.9
	c0-0.1,0-0.1,0-0.2h0v-0.3l-121.9-20l0-0.2c-11.8,0.8-29.6,0.7-41.9,0.4c-0.7,0-1.4-0.5-1.5-1.2c-0.1-0.7-0.2-1.3-0.3-1.8l-43.2-0.1
	v132.3c21.8,0,42.2,0,42.9,0.1c1.9,0,23.8-4.3,30.9-9.2c5.1-3.5,15.2-0.1,20.8,2.4c0.1,0.1,12.9,5.6,13.5,9c0.1,0.7-0.1,1.4-0.7,2.1
	c-0.5,0.6-1.5,1.3-2.7,2.1c11.4-0.1,34.3-0.5,56-1.6c21.7-1.1,42.7-3.2,48.3-3.8v-20.5C1138.7,427.4,1137.6,423.1,1137.6,420.7
	 M955.7,405.8c0,1.7-1.4,3.1-3.1,3.1h-15c-1.7,0-3.1-1.4-3.1-3.1v-9.2c0-1.7,1.4-3.1,3.1-3.1h15c1.7,0,3.1,1.4,3.1,3.1V405.8z
	 M974.1,353.5c0,1.7-1.4,3.1-3.1,3.1h-30c-1.7,0-3.1-1.4-3.1-3.1v-7.8c0-1.7,1.4-3.1,3.1-3.1h30c1.7,0,3.1,1.4,3.1,3.1V353.5z
	 M981.6,384.7c-1.7,0-3.1-1.4-3.1-3.1v-11.4c0-1.7,1.4-3.1,3.1-3.1h13.5c1.7,0,3.1,1.4,3.1,3.1v11.4c0,1.7-1.4,3.1-3.1,3.1H981.6z
	 M1036.3,417.1c0,1.7-1.4,3.1-3.1,3.1h-33.8c-1.7,0-3.1-1.4-3.1-3.1v-29c0-1.7,1.4-3.1,3.1-3.1h33.8c1.7,0,3.1,1.4,3.1,3.1V417.1z
	 M1058.1,404.6c0,1-0.7,4.6-3,4.7l-11.5,1.5c-0.1,0-0.1,0-0.2,0c-1.7,0-3.1-1.4-3.1-3.1v-16.3c0-1.7,1.4-3.1,3.1-3.1h11.6
	c1.7,0,3.1,1.4,3.1,3.1V404.6z M1114.5,400.9c0,1.7-1.4,3.1-3.1,3.1h-14.9c-1.7,0-3.1-1.4-3.1-3.1v-11.6c0-1.7,1.4-3.1,3.1-3.1h14.9
	c1.7,0,3.1,1.4,3.1,3.1V400.9z"/>
<path class="st0" d="M1670.1,359.1c-0.4,0-0.8,0-1.2-0.1v2.5c3.1,0.2,6.5,0.2,10,0.2c0.9,0,1.8,0,2.7,0l-0.1-2.2
	C1677.9,359.4,1674,359.3,1670.1,359.1"/>
<path class="st0" d="M1533.4,489.8c0.6,0,1.1-0.5,1.1-1.1c0-0.6-0.5-1.1-1.1-1.1c-0.6,0-1.1,0.5-1.1,1.1c0,0.1,0,0.2,0.1,0.3
	c0,0.1,0,0.1,0,0.2C1532.5,489.5,1532.9,489.8,1533.4,489.8"/>
<path class="st0" d="M1111.5,402.4v-1.5V402.4z"/>
<path class="st0" d="M1141.4,423.6c0.3,0.6,0.9,1.2,1.6,1.6v-1.6H1141.4L1141.4,423.6"/>
<path class="st0" d="M644.8,467.5l0-2.5l-0.7,1.3l-1.7-0.9c-1.4,3.7-3,8.4-2.8,9.9l-0.4,0.1c0.8,0.4,1.9,1,2.5,1.8
	c0.3,0.2,2.1,0.5,3.7,0.5h0.3c0.2-1,1.1-5.2,2.4-8.7c-0.5-0.5-0.9-1-1.2-1.5L644.8,467.5z"/>
<path class="st0" d="M1529.5,490.4c-0.5-0.3-1.5-0.8-2.9-1.5c0.1,3.6,3.1,6.6,6.7,6.6c3.7,0,6.8-3,6.8-6.8c0-3.7-3-6.8-6.8-6.8
	c-0.9,0-1.8,0.2-2.6,0.5l3.1,2.1c2.1,0.3,3.7,2,3.7,4.2c0,2.3-1.9,4.2-4.2,4.2C1531.6,492.9,1530.2,491.9,1529.5,490.4"/>
<path class="st0" d="M1533.4,478.8c5.4,0,9.9,4.4,9.9,9.9c0,5.4-4.4,9.9-9.9,9.9c-5.4,0-9.8-4.4-9.9-9.8l-0.2-1.4
	c-2.8-1.3-6.2-2.8-9.5-4.3c-0.5,1.8-0.8,3.7-0.8,5.6c0,11.2,9.1,20.3,20.3,20.3s20.3-9.1,20.3-20.3c0-11.2-9.1-20.3-20.3-20.3
	c-5.5,0-10.7,2.2-14.5,6.1l9,6C1529.5,479.4,1531.4,478.8,1533.4,478.8"/>
<polygon class="st0" points="1362.2,409.4 1375.3,409.4 1375.3,403.9 1362.2,403.9 "/>
<polygon class="st0" points="1736.7,277.6 1734.7,280.2 1734.9,288.8 1736.7,288.8 "/>
<polygon class="st0" points="1728.3,288.8 1731.8,288.8 1731.7,284.3 "/>
<path class="st0" d="M1739.8,288.9c5.6,0.3,9.3,2,10.7,5.1c2.3,5-1.7,11.8-4.4,15.5c1-0.1,1.9-0.1,2.6-0.2c3.5-0.3,7.4-2.6,8.9-3.6
	v-56.4l-17.8,24.1V288.9z"/>
<path class="st0" d="M1899,143.2h-73.6l-11.2,4.2l-33.6-0.1c13.1,3.1,27.1,9.9,35.5,17.8V156h3.1v9.3h-2.9c0.3,0.3,0.6,0.5,0.8,0.8
	l84.6-0.6c0,0,0.1,0,0.2-0.1c1.6-1.8,0.9-10.1,0.6-13.3C1902.3,148.7,1900,144.7,1899,143.2"/>
<path class="st0" d="M1747.6,295.3c-1.3-2.8-5.8-3.3-9.4-3.3h-3.3h-12.8h-6.6c-0.6,0-1.1-0.3-1.4-0.8c-0.3-0.5-0.2-1.1,0.1-1.6
	l79.8-110.3c-7.2,6.3-30.1,25-48,25c-2.8,0-5.5-0.5-8-1.5l-6.6,7.5c-0.3,0.3-0.7,0.5-1.2,0.5c-0.3,0-0.7-0.1-1-0.3
	c-0.9-0.7-2.6-2.2-4.8-3.9l-126.2,146.8l8,7.2c0.6,0.6,0.7,1.5,0.2,2.1l-20.5,26c-0.3,0.4-0.7,0.6-1.2,0.6h-30.9
	c-0.5,0-0.9-0.2-1.2-0.6c-0.3-0.4-0.4-0.8-0.3-1.3c0,0,0.1-0.7-0.5-1.6c-0.8-1.1-2.8-2.5-7.6-3.2c-6.5-0.9-10.2-1.5-12.2-1.9
	c1.1,11.2,3.7,27.6,8.7,51.7l-1.5,0.3v0.3c26.6-5.2,54.1-10.5,77.6-15.2c0.4-1,1.9-3,5.7-8.4l30-42.1l0.5,0.4l4.6-5.3l1.1-1.6
	l0.9,0.1c1.8,0.2,3.8,0.4,5.8,0.5v-2.5c-20.3-1.3-20.5-2.8-20.6-4.4c-0.2-2.1,2.5-2.9,5.7-3.6c22.1-4.9,71.9,1.6,72.3,1.7
	c0.2,0.1,0.3,0.2,0.5,0.3c1.1,0.9,0.9,1.8,0.8,2.2c-0.1,0.2-0.4,0.9-1.3,1.1c-0.1,0.2-0.1,0.1-0.2,0c-4.8,1.6-26.9,3.7-27.1,3.8
	c-0.1,0-0.2,0-0.3,0c-1.4,0-5.5-0.1-10.9-0.2l0.1,2c23-0.7,42.9-4.9,50.8-6.9c-10.1-2.3-37.8-8-64.2-7.2l-3.1,0.1l2.5-3.5l1.5-1.5
	l0.5-0.1c6.9-0.8,42.3-4.9,48.9-5.7c5.3-0.6,10.6-10.1,12.2-13.6l0.1-0.2l7.9-13.3l0.2,0C1744.5,306.6,1749.5,299.3,1747.6,295.3
	 M1740.7,209.7c3.3,0,5.9,2.7,5.9,5.9c0,3.3-2.7,5.9-5.9,5.9c-3.3,0-5.9-2.7-5.9-5.9C1734.8,212.4,1737.5,209.7,1740.7,209.7
	 M1567,407c-3.4,0-6.2-2.8-6.2-6.2c0-3.4,2.8-6.2,6.2-6.2c3.4,0,6.2,2.8,6.2,6.2C1573.1,404.3,1570.4,407,1567,407 M1625.4,361.9
	c-3.3,0-5.9-2.7-5.9-5.9c0-3.3,2.7-5.9,5.9-5.9c3.3,0,5.9,2.7,5.9,5.9C1631.3,359.3,1628.6,361.9,1625.4,361.9 M1642,353.6
	c-0.3,0.5-0.8,0.8-1.4,0.8c-0.2,0-0.5-0.1-0.7-0.2c-8.9-4.6-22.3-11.6-23.1-11.9c-0.8-0.3-1.2-1.1-0.9-1.9c0.3-0.8,1.2-1.2,2-1
	c0.2,0.1,0.5,0.2,23.4,12.1C1642.1,351.9,1642.4,352.9,1642,353.6 M1671.2,323l-9.8,10.7c-0.3,0.3-0.7,0.5-1.1,0.5
	c-0.3,0-0.7-0.1-1-0.3l-13.7-10.7c-0.3-0.3-0.5-0.7-0.6-1.1c0-0.4,0.1-0.8,0.4-1.2l9.5-10.7c0.5-0.6,1.5-0.7,2.1-0.2l14.1,10.8
	c0.3,0.3,0.6,0.7,0.6,1.1C1671.7,322.3,1671.5,322.7,1671.2,323 M1700.1,260.1c3.3,0,5.9,2.7,5.9,5.9c0,3.3-2.7,5.9-5.9,5.9
	c-3.3,0-5.9-2.7-5.9-5.9C1694.2,262.7,1696.9,260.1,1700.1,260.1 M1720.4,334.3c-14.6-0.2-38.4-0.4-40.2-0.1l-0.2-1.4l-1.4-1
	c0.6-0.9,0.8-1.2,41.9-0.7L1720.4,334.3z M1732.2,324.3h-45.3v-3.1h45.3V324.3z M1740,310.9c-16.5-0.2-41.7-0.3-43.5,0l-0.2-1.4
	l-1.4-1c0.6-0.9,0.8-1.1,45.1-0.7L1740,310.9z M1745.2,300.6c-15-0.2-39.5-0.4-41.4-0.1c0,0,0.5-0.1,0.8-0.6l-2.5-1.8
	c0.6-0.9,0.9-1.2,43.1-0.7L1745.2,300.6z"/>
<path class="st0" d="M1695.7,356.8c2.4,0,11.8-1.2,18.7-2.2c-14.9-1.6-46.8-4.3-62.9-0.8c-0.5,0.1-0.9,0.2-1.2,0.3
	c5.8,1.1,20.4,1.9,31.7,2.3c0.2-0.2,0.5-0.3,0.8-0.3c0.4,0,0.8,0.1,1.1,0.4C1689.4,356.7,1693.9,356.8,1695.7,356.8"/>
<path class="st0" d="M1793.8,165.4c2.7,1.9,3.6,4.4,3.8,6.2c0.1,1,0.1,2-0.1,3l5.6-7.8l2.5,1.8l-87,120.2h5.8l10.1-13.7l2.1-2.8
	v-0.5h0.4l20.6-27.7l56.7-76.5c-9.7-9.2-28.1-17.2-42.6-18.6C1787.2,155.4,1792.7,163.5,1793.8,165.4"/>
<path class="st0" d="M1625.4,353.2c-1.6,0-2.8,1.3-2.8,2.8c0,1.6,1.3,2.8,2.8,2.8c1.6,0,2.8-1.3,2.8-2.8
	C1628.2,354.5,1626.9,353.2,1625.4,353.2"/>
<path class="st0" d="M1567,397.8c-1.7,0-3.1,1.4-3.1,3.1c0,1.7,1.4,3.1,3.1,3.1s3.1-1.4,3.1-3.1
	C1570.1,399.2,1568.7,397.8,1567,397.8"/>
<path class="st0" d="M1740.8,218.5c1.6,0,2.8-1.3,2.8-2.8c0-1.5-1.3-2.8-2.8-2.8c-1.6,0-2.8,1.3-2.8,2.8
	C1737.9,217.2,1739.2,218.5,1740.8,218.5"/>
<path class="st0" d="M1700.1,268.8c1.6,0,2.8-1.3,2.8-2.8c0-1.5-1.3-2.8-2.8-2.8c-1.6,0-2.8,1.3-2.8,2.8
	C1697.3,267.5,1698.6,268.8,1700.1,268.8"/>
<path class="st0" d="M1664.2,322c0,3.3-2.7,5.9-5.9,5.9c-0.8,0-1.6-0.2-2.4-0.5l4.1,3.2l7.7-8.4l-4.6-3.5
	C1663.8,319.6,1664.2,320.8,1664.2,322"/>
<path class="st0" d="M1658.3,324.8c1.6,0,2.8-1.3,2.8-2.8c0-1.5-1.3-2.8-2.8-2.8c-1.6,0-2.8,1.3-2.8,2.8
	C1655.5,323.5,1656.7,324.8,1658.3,324.8"/>
<path class="st0" d="M1658.3,316.1c0.7,0,1.3,0.1,1.9,0.4l-4.1-3.1l-7.4,8.4l4.9,3.9c-0.8-1-1.3-2.3-1.3-3.7
	C1652.4,318.7,1655,316.1,1658.3,316.1"/>
<path class="st0" d="M1433.2,434.4l-287.1,1.2v24.1c23.7-0.9,54.6-2.3,94.3-4.3c26.5-1.3,50-2.5,70.6-3.5l1.6-0.1v5.2h1.2v6.5h3.8
	v-6.5h1.6v-5.6l1.5-0.1c61.5-3,94.1-4.4,96.8-4.5l-0.4-0.9C1417.2,446.1,1427,441.4,1433.2,434.4"/>
<path class="st0" d="M667.8,431.3h-8.1c-1.1,0-1.9,0.9-1.9,1.9c0,1.1,0.9,1.9,1.9,1.9h8.1c1.1,0,1.9-0.9,1.9-1.9
	C669.7,432.1,668.8,431.3,667.8,431.3"/>
<path class="st0" d="M976.8,451c-1.8-0.1-60,0-91.8,0v0.6c0,0.9-0.7,1.5-1.5,1.5H719.2l-0.9,1.1l234.4,0.2c0.1,0,0.1,0,0.2,0
	c15.3,1.6,41.1,4.2,54.5,5.4v-17.2C997.9,447.4,978.4,451.1,976.8,451"/>
<rect x="692.9" y="419.7" class="st0" width="8.3" height="5.6"/>
<path class="st0" d="M714.8,457.3v-1.5l-1.2-1l3.3-3.7v-90.3h-31.3V413c0,0.9-0.7,1.5-1.5,1.5h-39c-0.7,0-1.3-0.5-1.5-1.2h-70.9v8.7
	h0.2v3.1h-6.8c0,1,0.1,1.7,0.1,2.1c0.1,0.2,0.2,0.4,0.2,0.8c0,0.8-0.6,1.5-1.4,1.6c-0.1,0-0.1,0-0.1,0c-0.1,0-0.2,0-0.2,0
	c-0.8,0-5.1-0.1-11.5-0.2c3.3,1.8,6.9,3.7,8.3,4.1c17.8,1,29.8,6.1,36.5,9c6.2,2.7,10.5,4.9,12.9,6.2v-1.1h3.1v7.2
	c6.4-0.8,14.8,1.9,16.7,2.6c5.3-0.7,10.9,3.5,11.8,4.2l3.1,1.6l-0.4,0.8l24.7-0.2c5.9-5.3,13.6-8.6,22.2-8.6
	c8.5,0,16.3,3.3,22.1,8.6l113.1-0.1v1.1h1.5v5.8c0.7,0.8,3.5,3.3,10.9,4.7c8.5,1.6,12.7-9,12.8-9.4l0.4-1h1.6v-1.1l26.5,0l-0.2,1.7
	c-0.1,0.5,0.1,0.7,0.2,0.8c0.2,0.2,0.7,0.6,2.4,0.7c5,0.3,36,0,40.7,0c0.3-0.4,0.9-1,1.1-2l0.1-0.4v-3.5h1.5c0,0,31.2,0.1,65.5,0.1
	c-17.2-1.7-37.7-3.8-39.7-4L714.8,457.3z M667.8,438.2h-8.1c-2.8,0-5-2.3-5-5c0-2.8,2.3-5,5-5h8.1c2.8,0,5,2.3,5,5
	C672.8,436,670.5,438.2,667.8,438.2 M704.3,426.8c0,0.8-0.7,1.5-1.5,1.5h-11.4c-0.9,0-1.5-0.7-1.5-1.5v-8.7c0-0.9,0.7-1.5,1.5-1.5
	h11.4c0.8,0,1.5,0.7,1.5,1.5V426.8z"/>
<polygon class="st0" points="937.6,405.8 952.6,405.8 952.6,396.6 937.6,396.6 "/>
<path class="st0" d="M1032.9,457.5c-3.1,1.5-6.6,2.9-9.7,4.1c30.7,0,57,0.1,57.2,0.1c0.2,0,17.6-0.1,62.6-1.8v-7.8
	c-6.1,0.6-26.7,2.7-48.1,3.8C1068.2,457.2,1039.5,457.4,1032.9,457.5"/>
<path class="st0" d="M1031.5,454.4c0,0,0.3,0,0.7,0c3.2-1.5,5.8-3,6.8-3.9c-1.9-1.9-11.5-7.6-20.3-9.5c-3.7-0.8-6.6-0.8-8.3,0v19.2
	c2.9,0.3,4.9,0.4,5.4,0.4c1.9,0,9.6-3,15.7-5.8V454.4z"/>
<path class="st0" d="M692.5,484.9c-1.7,0-3,1.4-3,3c0,1.7,1.3,3,3,3c1.7,0,3-1.3,3-3C695.5,486.2,694.2,484.9,692.5,484.9"/>
<path class="st0" d="M666.9,467.3l-14.6,0.1c2.2,0.5,8.3,2.2,11.6,4.1C664.8,470,665.8,468.6,666.9,467.3"/>
<rect x="941" y="345.7" class="st0" width="30" height="7.8"/>
<path class="st0" d="M651.4,470.4c-0.1,0-0.2,0-0.3-0.1c-1,2.8-1.8,6.1-2.1,7.5l10.9,3.7c0.6-2.6,1.5-5.1,2.6-7.4
	C660.1,472.9,653.5,470.6,651.4,470.4"/>
<path class="st0" d="M711.1,465.5c-5.2-4.3-11.8-6.9-19-6.9c-7.1,0-13.6,2.5-18.8,6.7l-1.6,1.6c-2.4,2.3-4.3,4.8-5.8,7.7l-1.3,2.5
	c-0.7,1.7-1.2,3.4-1.6,5.2l0.1,0c-0.4,2-0.6,4.1-0.6,6.2c0,16.4,13.3,29.7,29.7,29.7c16.4,0,29.7-13.3,29.7-29.7
	c0-8.2-3.3-15.9-9.3-21.6L711.1,465.5z M692.5,505.4c-9.8,0-17.7-7.9-17.7-17.7c0-9.8,7.9-17.7,17.7-17.7s17.7,7.9,17.7,17.7
	C710.2,497.5,702.2,505.4,692.5,505.4"/>
<path class="st0" d="M692.5,473.1c-8,0-14.6,6.5-14.6,14.6c0,8,6.6,14.6,14.6,14.6c8,0,14.6-6.6,14.6-14.6
	C707.1,479.7,700.5,473.1,692.5,473.1 M692.3,500.6c-7,0-12.7-5.7-12.7-12.7c0-7,5.7-12.7,12.7-12.7c7,0,12.7,5.7,12.7,12.7
	C705,494.9,699.3,500.6,692.3,500.6"/>
<path class="st0" d="M692.3,478.3c-5.3,0-9.6,4.3-9.6,9.6c0,5.3,4.3,9.6,9.6,9.6c5.3,0,9.6-4.3,9.6-9.6
	C701.9,482.6,697.6,478.3,692.3,478.3 M692.5,494c-3.4,0-6.1-2.7-6.1-6.1c0-3.4,2.7-6.1,6.1-6.1c3.4,0,6.1,2.7,6.1,6.1
	C698.6,491.2,695.9,494,692.5,494"/>
<polygon class="st0" points="999.4,388.1 999.4,417.1 1033.2,417.1 1033.2,388.1 "/>
<rect x="981.6" y="370.3" class="st0" width="13.5" height="11.4"/>
<path class="st0" d="M1043.4,407.8l11.1-1.5c0.2-0.4,0.5-1.4,0.5-1.7v-13.1h-11.6V407.8z"/>
<path class="st0" d="M1033.2,418.7v-1.5V418.7z"/>
<rect x="789.2" y="227.2" class="st0" width="21.7" height="12.9"/>
<line class="st4" x1="870.6" y1="190.1" x2="869.5" y2="175.5"/>
</svg>
