<?xml version="1.0" encoding="utf-8"?>
<!-- Generator: Adobe Illustrator 26.5.0, SVG Export Plug-In . SVG Version: 6.00 Build 0)  -->
<svg version="1.1" id="Layer_1" xmlns="http://www.w3.org/2000/svg" xmlns:xlink="http://www.w3.org/1999/xlink" x="0px" y="0px"
	 viewBox="0 0 1005.83 298.44" style="enable-background:new 0 0 1005.83 298.44;" xml:space="preserve">
<style type="text/css">
	.st0{fill:#FFFFFF;}
</style>
<g>
	<path class="st0" d="M120.95,135c2.81-2.93,4.22-8.05,4.22-15.36v-10.01c0-7.31-1.41-12.43-4.22-15.36
		c-2.81-2.93-7.72-4.39-14.73-4.39H81.06v49.5h25.17C113.23,139.39,118.14,137.92,120.95,135z M94.32,128.35v-27.43h9.87
		c3.01,0,5,0.55,5.97,1.66c0.96,1.11,1.45,3.78,1.45,8.01v8.14c0,4.23-0.48,6.89-1.43,7.98c-0.95,1.09-2.95,1.63-5.98,1.63H94.32z"
		/>
	<path class="st0" d="M107.49,43.18l-0.52,9.75c-0.72,13.52-16.26,21.91-15.99,21.86h86.27c0,0-18.03-13.78-19.44-33.23
		c-0.17-2.26-0.46-6.29-0.84-11.47c-1.22-16.66,8.22-23.29,9.89-24.42c-2.65,0-12.11,0-16.41,0c-7.56,0-15.31,0-19.81,0
		c-10.32,0-17.96,9.29-17.96,9.29s-11.54,3.75-18.86,6.2c-10.36,3.46-9.79,15.2-9.79,15.2C91.5,30.3,107.92,34.97,107.49,43.18z"/>
	<path class="st0" d="M94.32,184.53h12.6c6.52,0,11.19-1.28,14.01-3.86c2.83-2.57,4.24-6.8,4.24-12.7v-3.26
		c0-5.87-1.41-10.09-4.22-12.65c-2.82-2.56-7.49-3.84-14.03-3.84H81.06v49.5h13.27V184.53z M94.32,159.33h11.37
		c2.15,0,3.67,0.42,4.57,1.25c0.9,0.83,1.35,2.23,1.35,4.21v2.86c0,2.35-0.36,3.91-1.06,4.69c-0.71,0.78-2.15,1.16-4.32,1.16h-11.9
		V159.33z"/>
	<polygon class="st0" points="159.38,148.22 150.65,148.22 145.1,148.22 129.8,197.73 144.07,197.73 155.01,162.34 165.95,197.73 
		180.23,197.73 164.92,148.22 	"/>
	<path class="st0" d="M255.69,117.25V93.36l-0.07,0.04l-37.28,21.53v-11.94l37.28-21.52V57.58l-55.95,32.3v100.23
		c0,18.15-4.79,22.71-23.57,22.71h-90.9c-18.78,0-23.57-4.56-23.57-22.71V89.88L5.67,57.58v23.89l37.28,21.52v11.94L5.67,93.4
		l-0.07-0.04v23.89l37.35,21.57v11.94L5.59,129.19v23.89l37.35,21.57v11.94L5.59,165.02v23.89l18.68,10.7v29.5l69.33,40.02
		l37.05,21.39l37.16-21.45l69.21-39.96v-29.5l18.68-10.7v-23.89l-37.35,21.57v-11.94l37.35-21.57v-23.89l-37.35,21.57v-11.94
		L255.69,117.25z M101.06,249.56l-6.31-4.58l-6.31,4.58l2.41-7.42l-6.31-4.58h7.8l2.41-7.42l2.41,7.42h7.8l-6.31,4.58L101.06,249.56
		z M140.83,261.51l-10.19-7.4l-10.19,7.4l3.89-11.98l-10.19-7.4h12.6l3.89-11.98l3.89,11.98h12.6l-10.19,7.4L140.83,261.51z
		 M172.71,249.2l-6.19-4.5l-6.19,4.5l2.37-7.28l-6.19-4.5h7.65l2.36-7.28l2.37,7.28h7.65l-6.19,4.5L172.71,249.2z"/>
	<path class="st0" d="M180.27,109.62c0-7.33-1.41-12.46-4.23-15.39c-2.82-2.93-7.74-4.4-14.75-4.4h-10.26
		c-7.02,0-11.93,1.47-14.75,4.4c-2.82,2.93-4.23,8.06-4.23,15.39v10.02c0,7.33,1.41,12.45,4.23,15.38c2.82,2.93,7.74,4.4,14.75,4.4
		h10.26c7.02,0,11.93-1.47,14.75-4.4c2.82-2.93,4.23-8.06,4.23-15.38V109.62z M166.66,118.74c0,4.23-0.48,6.89-1.43,7.98
		c-0.95,1.09-2.95,1.63-5.98,1.63h-6.18c-3.04,0-5.03-0.54-5.98-1.63c-0.95-1.09-1.43-3.75-1.43-7.98v-8.14
		c0-4.23,0.48-6.9,1.45-8.01c0.96-1.11,2.95-1.66,5.97-1.66h6.18c3.01,0,5,0.55,5.97,1.66c0.96,1.11,1.45,3.78,1.45,8.01V118.74z"/>
</g>
<g>
	<path class="st0" d="M345.41,132.69c2.62-2.73,3.94-7.5,3.94-14.32v-9.33c0-6.82-1.31-11.59-3.94-14.32
		c-2.62-2.73-7.2-4.09-13.73-4.09h-26.04v46.15h26.04C338.21,136.78,342.79,135.42,345.41,132.69z M318.01,126.49v-25.57h11.78
		c2.81,0,4.66,0.52,5.56,1.55c0.9,1.03,1.35,3.52,1.35,7.47v7.59c0,3.95-0.45,6.43-1.33,7.44c-0.89,1.01-2.75,1.52-5.58,1.52H318.01
		z"/>
	<polygon class="st0" points="401.38,126.49 376,126.49 376,117.81 400.24,117.81 400.24,108.92 376,108.92 376,100.92 
		400.89,100.92 400.89,90.63 363.63,90.63 363.63,136.78 401.38,136.78 	"/>
	<path class="st0" d="M428.53,124.48h9.27c6.08,0,10.43-1.2,13.07-3.6c2.63-2.4,3.95-6.34,3.95-11.84V106
		c0-5.48-1.31-9.41-3.94-11.79c-2.63-2.39-6.99-3.58-13.08-3.58h-21.63v46.15h12.37V124.48z M428.53,100.98h8.12
		c2.01,0,3.43,0.39,4.26,1.16c0.84,0.78,1.26,2.08,1.26,3.92v2.67c0,2.19-0.33,3.65-0.99,4.37c-0.66,0.72-2.01,1.09-4.03,1.09h-8.62
		V100.98z"/>
	<polygon class="st0" points="586.23,136.78 598.75,136.78 598.75,100.92 613.13,100.92 613.13,90.63 571.78,90.63 571.78,100.92 
		586.23,100.92 	"/>
	<polygon class="st0" points="638.14,102.5 650.04,136.78 662.41,136.78 674.25,102.87 674.25,136.78 686.31,136.78 686.31,90.63 
		668.24,90.63 656.18,124.01 644.15,90.63 626.08,90.63 626.08,136.78 638.14,136.78 	"/>
	<polygon class="st0" points="739.84,126.49 714.45,126.49 714.45,117.81 738.69,117.81 738.69,108.92 714.45,108.92 714.45,100.92 
		739.34,100.92 739.34,90.63 702.08,90.63 702.08,136.78 739.84,136.78 	"/>
	<polygon class="st0" points="766.39,102.19 783.32,136.78 801.73,136.78 801.73,90.63 789.92,90.63 789.92,124.91 772.99,90.63 
		754.61,90.63 754.61,136.78 766.39,136.78 	"/>
	<polygon class="st0" points="829.12,136.78 841.65,136.78 841.65,100.92 856.03,100.92 856.03,90.63 814.68,90.63 814.68,100.92 
		829.12,100.92 	"/>
	<path class="st0" d="M921.27,137.34h11.21c6.55,0,11.13-1.39,13.77-4.18c2.63-2.79,3.95-7.68,3.95-14.66v-9.58
		c0-6.98-1.32-11.87-3.95-14.66c-2.63-2.79-7.22-4.19-13.77-4.19h-11.21c-6.53,0-11.1,1.39-13.73,4.17
		c-2.62,2.78-3.93,7.67-3.93,14.68v9.58c0,7,1.31,11.9,3.93,14.68C910.16,135.95,914.74,137.34,921.27,137.34z M916.25,109.94
		c0-3.95,0.45-6.44,1.35-7.47c0.9-1.03,2.75-1.55,5.55-1.55h7.44c2.82,0,4.69,0.52,5.6,1.56c0.91,1.04,1.36,3.53,1.36,7.45v7.59
		c0,3.91-0.45,6.38-1.36,7.41c-0.91,1.03-2.77,1.55-5.6,1.55h-7.44c-2.83,0-4.68-0.51-5.57-1.52c-0.89-1.01-1.33-3.49-1.33-7.44
		V109.94z"/>
	<polygon class="st0" points="976.88,120.01 997.03,120.01 997.03,109.88 976.88,109.88 976.88,100.92 998.11,100.92 998.11,90.63 
		964.51,90.63 964.51,136.78 976.88,136.78 	"/>
	<path class="st0" d="M533.6,124.48h6.1l5.99,12.31h14.2l-7.04-13.98c1.2-0.52,2.24-1.15,3.09-1.92c2.63-2.4,3.95-6.34,3.95-11.84
		V106c0-5.48-1.31-9.41-3.94-11.79c-2.63-2.39-6.99-3.58-13.08-3.58h-21.64v46.15h12.37V124.48z M533.6,100.98h8.12
		c2.01,0,3.42,0.39,4.26,1.16c0.83,0.78,1.26,2.08,1.26,3.92v2.67c0,2.19-0.33,3.65-1,4.37c-0.66,0.72-2.01,1.09-4.03,1.09h-8.61
		V100.98z"/>
	<path class="st0" d="M478.92,130.14h14.97l1.65,6.65h13.14l-12.71-46.15h-18.72l-13.14,46.15h13.08L478.92,130.14z M491.73,121.46
		h-10.55l5.4-20.72L491.73,121.46z"/>
	<path class="st0" d="M318.01,193.24h9.27c6.08,0,10.43-1.2,13.07-3.6c2.63-2.39,3.95-6.34,3.95-11.84v-3.04
		c0-5.48-1.31-9.41-3.94-11.79c-2.63-2.39-6.99-3.58-13.08-3.58h-21.64v46.15h12.37V193.24z M318.01,169.75h8.12
		c2.01,0,3.42,0.39,4.26,1.16c0.83,0.78,1.26,2.08,1.26,3.92v2.67c0,2.19-0.33,3.65-1,4.37c-0.66,0.72-2.01,1.09-4.03,1.09h-8.61
		V169.75z"/>
	<rect x="409.93" y="159.39" class="st0" width="12.49" height="46.15"/>
	<polygon class="st0" points="435,159.39 447.71,205.55 466.43,205.55 479.58,159.39 466.5,159.39 457.1,195.44 448.15,159.39 	"/>
	<path class="st0" d="M486.33,205.55h13.08l1.73-6.65h14.97l1.65,6.65h13.14l-12.71-46.15h-18.72L486.33,205.55z M513.95,190.22
		H503.4l5.4-20.72L513.95,190.22z"/>
	<path class="st0" d="M370.02,193.24h6.1l5.99,12.31h14.2l-7.04-13.98c1.2-0.52,2.24-1.15,3.09-1.92c2.63-2.39,3.95-6.34,3.95-11.84
		v-3.04c0-5.48-1.31-9.41-3.94-11.79c-2.63-2.39-6.99-3.58-13.08-3.58h-21.64v46.15h12.37V193.24z M370.02,169.75h8.12
		c2.01,0,3.42,0.39,4.26,1.16c0.83,0.78,1.26,2.08,1.26,3.92v2.67c0,2.19-0.33,3.65-1,4.37c-0.66,0.72-2.01,1.09-4.03,1.09h-8.61
		V169.75z"/>
	<path class="st0" d="M943.1,177.81v-3.04c0-5.48-1.31-9.41-3.94-11.79c-2.63-2.39-6.99-3.58-13.08-3.58h-21.64v46.15h12.37v-12.31
		h6.1l5.99,12.31h14.2l-7.04-13.98c1.2-0.52,2.24-1.15,3.09-1.92C941.78,187.25,943.1,183.3,943.1,177.81z M930.46,177.5
		c0,2.19-0.33,3.65-1,4.37c-0.66,0.72-2.01,1.09-4.03,1.09h-8.61v-13.2h8.12c2.01,0,3.42,0.39,4.26,1.16
		c0.83,0.78,1.26,2.08,1.26,3.92V177.5z"/>
	<path class="st0" d="M665.9,205.55h13.08l1.73-6.65h14.97l1.65,6.65h13.14l-12.71-46.15h-18.72L665.9,205.55z M693.52,190.22
		h-10.55l5.4-20.72L693.52,190.22z"/>
	<path class="st0" d="M831.53,159.39l-13.14,46.15h13.08l1.73-6.65h14.97l1.65,6.65h13.14l-12.71-46.15H831.53z M835.46,190.22
		l5.4-20.72l5.15,20.72H835.46z"/>
	<polygon class="st0" points="560.62,205.55 560.62,169.69 575,169.69 575,159.39 533.65,159.39 533.65,169.69 548.1,169.69 
		548.1,205.55 	"/>
	<polygon class="st0" points="625.21,169.69 625.21,159.39 587.95,159.39 587.95,205.55 625.71,205.55 625.71,195.26 600.32,195.26 
		600.32,186.58 624.56,186.58 624.56,177.68 600.32,177.68 600.32,169.69 	"/>
	<polygon class="st0" points="759.19,169.69 759.19,159.39 723.02,159.39 723.02,205.55 735.38,205.55 735.38,188.78 758.11,188.78 
		758.11,178.64 735.38,178.64 735.38,169.69 	"/>
	<polygon class="st0" points="809.59,169.69 809.59,159.39 773.41,159.39 773.41,205.55 785.78,205.55 785.78,188.78 808.5,188.78 
		808.5,178.64 785.78,178.64 785.78,169.69 	"/>
	<rect x="875.87" y="159.39" class="st0" width="12.49" height="46.15"/>
	<path class="st0" d="M960.56,203.32c2.45,1.86,6.37,2.79,11.76,2.79h12.65c4.01,0,7.2-1.15,9.58-3.44
		c2.37-2.29,3.56-5.35,3.56-9.17v-4.43c0-3.35-0.97-5.95-2.91-7.8c-1.94-1.85-4.89-3-8.84-3.46l-11.72-1.02
		c-3.33-0.37-4.99-1.4-4.99-3.1v-1.92c0-1.14,0.37-1.94,1.1-2.4c0.73-0.46,2.08-0.7,4.04-0.7h5.43c1.69,0,2.87,0.27,3.52,0.81
		c0.58,0.48,0.89,1.32,0.95,2.48h11.9v-2.26c0-3.51-1.22-6.2-3.66-8.06c-2.44-1.86-5.96-2.79-10.57-2.79h-9.98
		c-3.16,0-5.54,0.19-7.13,0.57c-1.59,0.38-2.95,1.04-4.06,1.97c-1.3,1.08-2.29,2.45-2.98,4.14c-0.68,1.68-1.02,3.6-1.02,5.75v2.85
		c0,3.8,0.86,6.67,2.59,8.6c1.73,1.93,4.46,3.1,8.2,3.52l12.62,1.08c2.11,0.25,3.46,0.61,4.06,1.09c0.6,0.47,0.9,1.26,0.9,2.35v2.02
		c0,1.28-0.38,2.18-1.13,2.68c-0.75,0.51-2.07,0.76-3.95,0.76h-5.67c-2.25,0-3.82-0.33-4.71-0.99c-0.64-0.48-1.04-1.23-1.22-2.23
		h-11.98v1.46C956.89,198.5,958.11,201.46,960.56,203.32z"/>
</g>
</svg>
