<?xml version="1.0" encoding="utf-8"?>
<!-- Generator: Adobe Illustrator 26.5.0, SVG Export Plug-In . SVG Version: 6.00 Build 0)  -->
<svg version="1.1" id="Layer_1" xmlns="http://www.w3.org/2000/svg" xmlns:xlink="http://www.w3.org/1999/xlink" x="0px" y="0px"
	 viewBox="0 0 1000 1000" style="enable-background:new 0 0 1000 1000;" xml:space="preserve">
<style type="text/css">
	.st0{fill:#FFFFFF;}
</style>
<circle class="st0" cx="499.99" cy="500.01" r="460.2"/>
<g>
	<path d="M194.85,706.5l1.72-1.1c1.91-1.22,2.98-2.43,3.23-3.62c0.24-1.19-0.27-2.78-1.55-4.77l-4.31-6.72l-11.66,7.48l4.31,6.72
		c1.29,2.01,2.52,3.15,3.68,3.42C191.43,708.18,192.96,707.71,194.85,706.5z"/>
	<polygon points="309.44,185.07 293.17,169.21 292.39,169.71 299.57,191.3 	"/>
	<path d="M174.63,342.2c-0.64-1.42-3.02-3.08-7.17-4.98l-7.97-3.66c-4.14-1.9-6.97-2.63-8.49-2.18c-1.52,0.45-2.95,2.14-4.31,5.1
		l-4.44,9.67l26.85,12.32l4.43-9.67C174.9,345.82,175.27,343.62,174.63,342.2z"/>
	<path d="M155.77,646.91c1.06,0.4,2.76,0.13,5.12-0.8l2.86-1.14c1.97-0.78,3.2-1.79,3.68-3.02c0.47-1.23,0.29-2.92-0.57-5.07
		l-3.46-8.72l-14.18,5.63l3.67,9.25C153.75,645.22,154.71,646.51,155.77,646.91z"/>
	<path d="M250.26,220c-0.01-1.13-0.88-2.62-2.6-4.47l-2.1-2.25c-1.45-1.55-2.83-2.33-4.15-2.32c-1.32,0-2.82,0.8-4.52,2.38
		l-6.86,6.4l10.4,11.16l7.28-6.79C249.42,222.49,250.27,221.13,250.26,220z"/>
	<path d="M466,541.01c1.2-1.31,1.8-3.96,1.8-7.93v-4.84c0-3.34-0.76-5.71-2.28-7.12c-1.52-1.41-4.1-2.11-7.73-2.11h-19.24v23.96
		h20.14C462.36,542.98,464.8,542.33,466,541.01z"/>
	<path d="M500,54.75C254.49,54.75,54.75,254.49,54.75,500S254.49,945.25,500,945.25S945.25,745.51,945.25,500
		S745.51,54.75,500,54.75z M880.14,361.91l-10.95,4.62l-8.39-19.86l-9.53,4.03l7.9,18.7l-10.79,4.55l-7.9-18.7l-17.85,7.54
		l-5.56-13.16l49.12-20.74L880.14,361.91z M785.07,288.76c0.99-4.3,4.84-8.7,11.57-13.2l9.2-6.15c6.73-4.5,12.27-6.38,16.62-5.64
		c4.35,0.74,8.62,4.24,12.81,10.51l3.89,5.82c4.2,6.29,5.81,11.59,4.82,15.91c-0.99,4.32-4.84,8.72-11.55,13.2l-9.2,6.15
		c-6.71,4.48-12.25,6.35-16.62,5.62c-4.37-0.74-8.65-4.25-12.86-10.54l-3.89-5.82C785.68,298.35,784.08,293.06,785.07,288.76z
		 M728.11,181.81l7.39-9.31l32.75,26.01l-7.39,9.31l-10.68-8.48l-25.76,32.44l-11.33-9l25.76-32.44L728.11,181.81z M661.13,130.26
		l18.92,9.63l-3.19,42.81l17.97-35.29l12.16,6.19l-24.19,47.51l-18.95-9.65l3.35-43.13l-18.13,35.61l-12.12-6.17L661.13,130.26z
		 M587.58,107.01l38.68,10.44l-3.1,11.48l-24.89-6.71l-2.41,8.92l24.16,6.52l-2.68,9.92l-24.16-6.52l-2.61,9.68l25.44,6.87
		l-3.1,11.48l-39.24-10.59L587.58,107.01z M486.26,97.32l20.86,0.85l9.35,38.97l12.51-38.09l20.86,0.85l-2.16,53.27l-13.92-0.57
		l1.59-39.14l-12.28,38.71l-14.27-0.58l-9.16-40.01l-1.61,39.57l-13.92-0.56L486.26,97.32z M451.56,100.79l2.07,11.71l-13.43,2.37
		l7.2,40.8l-14.25,2.52l-7.2-40.8l-13.51,2.39l-2.07-11.71L451.56,100.79z M359,124.19c7.68-2.92,13.33-3.91,16.95-2.97
		c3.62,0.94,6.4,3.94,8.32,9l1.52,4.02c1.28,3.37,1.47,6.32,0.56,8.84c-0.91,2.53-2.88,4.6-5.92,6.21c3.58-0.72,6.46-0.54,8.64,0.55
		c2.18,1.09,3.85,3.18,5.03,6.29l3.9,10.28l-13.66,5.19l-3.41-8.97c-0.8-2.12-1.77-3.42-2.88-3.9c-1.12-0.48-2.78-0.31-4.99,0.53
		l-7.4,2.81l5.52,14.53l-13.36,5.07l-18.93-49.84L359,124.19z M296.2,154.22l41.1,37.11l-12.96,8.18l-7-6.59l-14.2,8.96l2.91,9.17
		l-12.96,8.18l-15.48-53.27L296.2,154.22z M229.7,203.67c5.15-4.8,9.77-7.23,13.87-7.28c4.1-0.05,8.3,2.24,12.62,6.87l2.39,2.57
		c4.33,4.65,6.33,9.02,5.99,13.12c-0.34,4.1-3.07,8.54-8.21,13.33l-7.83,7.3l9.69,10.4l-10.45,9.74l-36.36-39L229.7,203.67z
		 M187.3,248.05l9.62,6.99l-15.16,20.85l7.47,5.43l14.72-20.24l8.31,6.04l-14.72,20.24l8.11,5.89l15.5-21.32l9.62,6.99l-23.9,32.87
		l-43.12-31.35L187.3,248.05z M136.8,329.53c3.15-6.86,6.78-11,10.91-12.45c4.13-1.44,9.77-0.52,16.93,2.77l9.8,4.49
		c7.16,3.28,11.54,6.96,13.14,11.03c1.6,4.07,0.83,9.53-2.32,16.39l-11.3,24.64l-48.46-22.23L136.8,329.53z M82.05,490.68h31.72
		l9.8-30.16l9.8,30.16h31.72l-25.66,18.64l9.8,30.16l-25.66-18.64l-25.66,18.64l9.8-30.16L82.05,490.68z M142.11,648.13l-3.95-9.95
		l-13.21,5.24l-5.27-13.28l49.55-19.67l9.22,23.23c2.6,6.55,3.18,11.73,1.73,15.57c-1.44,3.83-5.11,6.92-10.99,9.25l-3.26,1.3
		c-5.9,2.34-10.7,2.61-14.4,0.8C147.85,658.82,144.7,654.66,142.11,648.13z M188.92,724.64c-0.62,2.35-2.32,4.43-5.12,6.22
		l-9.25,5.94l-7.89-12.3l8.08-5.18c1.91-1.22,2.98-2.43,3.23-3.62c0.24-1.19-0.27-2.78-1.55-4.77l-4.27-6.66l-13.08,8.39
		l-7.72-12.02l44.87-28.79l11.6,18.08c4.44,6.91,6.57,12.24,6.4,15.97c-0.17,3.74-2.53,7.07-7.09,10l-3.62,2.32
		c-3.03,1.95-5.88,2.74-8.54,2.37c-2.66-0.37-5.09-1.87-7.3-4.51C189.12,719.43,189.53,722.28,188.92,724.64z M195.63,762.71
		l39.89-35.38l9.57,10.8l-39.89,35.38L195.63,762.71z M237.64,805.15l22.52-50.51l11.73,9.64l-18.45,38.74l34.83-25.28l11.67,9.6
		l-45.59,31.54L237.64,805.15z M332.35,867.31l-13.46-7.33l2.34-9.32l-14.75-8.03l-6.59,7.01l-13.46-7.33l38.95-39.5l19.31,10.51
		L332.35,867.31z M403.18,849.21l-12.89-4.46l-13.54,39.15l-13.67-4.73l13.54-39.15l-12.96-4.48l3.89-11.24l39.52,13.67
		L403.18,849.21z M466.47,861.01l-25.48-3.9l-1.4,9.13l24.74,3.79l-1.55,10.16l-24.74-3.79l-1.52,9.91l26.05,3.99l-1.8,11.75
		l-40.17-6.14l8.06-52.7l39.61,6.06L466.47,861.01z M191.3,500c0-170.22,138.48-308.7,308.7-308.7
		c170.22,0,308.7,138.48,308.7,308.7S670.22,808.7,500,808.7C329.78,808.7,191.3,670.22,191.3,500z M575.16,896.94l-3.81-8.83
		l-16.59,2.61l-0.96,9.57l-15.14,2.38l6.86-55.05l21.72-3.41l23.07,50.34L575.16,896.94z M633.81,881.27l-13.46,4.79l-17.88-50.23
		l33.77-12.02l3.98,11.2l-20.31,7.23l3.47,9.75l19.13-6.81l3.93,11.03l-19.13,6.81L633.81,881.27z M696.49,853.19l-12.44,7.02
		l-26.2-46.43l31.22-17.61l5.84,10.35l-18.77,10.59l5.09,9.01l17.68-9.98l5.75,10.2l-17.68,9.98L696.49,853.19z M766.02,804.51
		l-7.78-5.65l-12.94,10.7l4.06,8.72l-11.81,9.77l-22.16-50.85l16.94-14.01l45.51,31.55L766.02,804.51z M798.79,772.34l-40.02-35.23
		l9.54-10.83l40.02,35.23L798.79,772.34z M845.17,710.54l-8.1-5.15c-1.91-1.22-3.46-1.69-4.65-1.41c-1.18,0.28-2.41,1.42-3.68,3.41
		l-4.25,6.68l13.11,8.34l-7.67,12.05l-44.99-28.61l11.53-18.13c4.41-6.93,8.34-11.1,11.81-12.52c3.46-1.42,7.48-0.68,12.05,2.23
		l3.63,2.31c3.04,1.93,4.96,4.18,5.74,6.75c0.79,2.57,0.44,5.4-1.02,8.51c2.44-2.72,4.85-4.3,7.25-4.73
		c2.39-0.43,4.99,0.25,7.79,2.03l9.27,5.9L845.17,710.54z M878.94,642.7l-4.28,10.82c-2.29,5.79-4.96,9.61-7.99,11.45
		c-3.04,1.84-6.73,1.9-11.08,0.18l-3.43-1.36l5.04-12.75l0.5,0.2c1.8,0.71,3.24,0.73,4.33,0.05c1.09-0.67,2.11-2.22,3.07-4.64
		l1.32-3.33c0.8-2.02,1.09-3.54,0.86-4.57c-0.22-1.02-1.02-1.81-2.4-2.35l-2.16-0.86c-1.18-0.47-2.15-0.48-2.91-0.03
		c-0.77,0.44-1.73,1.74-2.89,3.9l-5.43,10.33c-2.03,3.84-4.45,6.28-7.26,7.31c-2.81,1.03-6.26,0.74-10.34-0.87l-3.06-1.21
		c-2.31-0.91-4.22-2.09-5.74-3.54c-1.52-1.45-2.58-3.1-3.18-4.96c-0.53-1.59-0.66-3.33-0.39-5.2c0.27-1.87,1.07-4.51,2.41-7.9
		l3.15-7.96c1.96-4.95,4.45-8.34,7.49-10.17c3.03-1.83,6.44-2,10.21-0.5l3.4,1.34l-5.04,12.75l-0.53-0.21
		c-1.49-0.59-2.66-0.64-3.51-0.17c-0.85,0.47-1.64,1.62-2.36,3.44l-1.21,3.06c-0.83,2.11-1.16,3.66-0.97,4.64
		c0.19,0.99,0.89,1.72,2.11,2.2l2.06,0.82c1.82,0.72,3.64-0.63,5.45-4.04l4.98-9.39c2.17-4.05,4.65-6.72,7.46-8.02
		c2.81-1.3,6.02-1.24,9.61,0.18l4.76,1.88c4.11,1.63,6.89,4.2,8.34,7.73C880.77,634.48,880.64,638.39,878.94,642.7z M876.43,520.84
		l-25.66,18.64l9.8-30.16l-25.66-18.64h31.72l9.8-30.16l9.8,30.16h31.72l-25.66,18.64l9.8,30.16L876.43,520.84z"/>
	<polygon points="438.26,643.65 433.81,629.97 429.37,643.65 414.99,643.65 426.62,652.1 422.18,665.78 433.81,657.33 
		445.45,665.78 441,652.1 452.64,643.65 	"/>
	<path d="M500,206.25c-161.97,0-293.75,131.77-293.75,293.75S338.03,793.75,500,793.75S793.75,661.97,793.75,500
		S661.97,206.25,500,206.25z M576.81,477.91c-4.77,4.96-13.09,7.44-24.96,7.44H534.5c-11.87,0-20.19-2.48-24.96-7.44
		c-4.77-4.96-7.16-13.64-7.16-26.03v-16.96c0-12.4,2.39-21.07,7.16-26.03c4.77-4.96,13.09-7.44,24.96-7.44h17.35
		c11.87,0,20.19,2.48,24.96,7.44c4.77,4.96,7.16,13.64,7.16,26.03v16.96C583.97,464.27,581.58,472.95,576.81,477.91z M583.9,583.99
		h-24.15l-18.51-59.88l-18.51,59.88h-24.15l25.89-83.76h9.39h14.77h9.39L583.9,583.99z M437.69,285.22
		c12.39-4.14,31.91-10.49,31.91-10.49s12.93-15.71,30.39-15.71c7.62,0,20.73,0,33.53,0c7.28,0,23.29,0,27.77,0
		c-2.83,1.91-18.79,13.12-16.74,41.32c0.64,8.78,1.14,15.58,1.41,19.41c2.4,32.91,32.9,56.22,32.9,56.22H432.9
		c-0.46,0.08,25.84-14.11,27.05-36.98l0.87-16.5c0.73-13.88-27.06-21.78-39.69-11.55C421.13,310.94,420.16,291.08,437.69,285.22z
		 M416.1,401.52h42.58c11.85,0,20.16,2.47,24.92,7.43c4.76,4.95,7.15,13.61,7.15,25.99v16.93c0,12.37-2.38,21.04-7.15,25.99
		c-4.76,4.95-13.07,7.43-24.92,7.43H416.1V401.52z M416.1,500.23h43.76c11.06,0,18.98,2.17,23.74,6.5
		c4.76,4.33,7.14,11.47,7.14,21.4v5.51c0,9.98-2.39,17.14-7.17,21.49c-4.78,4.35-12.69,6.52-23.71,6.52h-21.32v22.33H416.1V500.23z
		 M711.58,468.02v40.42l-63.2,36.5v20.21l63.2-36.5v40.42l-31.6,18.1v49.91l-117.11,67.61L500,740.98l-62.68-36.19l-117.3-67.72
		v-49.91l-31.6-18.1v-40.42l63.2,36.5v-20.21l-63.2-36.5v-40.42l63.2,36.5v-20.21l-63.2-36.5V407.4l0.13,0.07l63.07,36.42v-20.21
		l-63.07-36.42v-40.42l94.67,54.66v169.6c0,30.71,8.11,38.42,39.88,38.42h153.8c31.77,0,39.88-7.72,39.88-38.42v-169.6l94.67-54.66
		v40.42l-63.07,36.42v20.21l63.07-36.42l0.13-0.07v40.42l-63.2,36.5v20.21L711.58,468.02z"/>
	<polygon points="570.55,643.4 566.19,629.97 561.83,643.4 547.71,643.4 559.13,651.69 554.77,665.11 566.19,656.82 577.61,665.11 
		573.24,651.69 584.66,643.4 	"/>
	<polygon points="506.62,659.22 500,638.84 493.38,659.22 471.95,659.22 489.29,671.82 482.66,692.2 500,679.61 517.34,692.2 
		510.72,671.82 528.05,659.22 	"/>
	<path d="M548.4,420.19h-10.46c-5.1,0-8.47,0.94-10.1,2.81c-1.63,1.88-2.45,6.39-2.45,13.56v13.78c0,7.16,0.81,11.66,2.42,13.5
		c1.61,1.84,4.99,2.76,10.13,2.76h10.46c5.14,0,8.51-0.92,10.13-2.76c1.61-1.84,2.42-6.34,2.42-13.5v-13.78
		c0-7.16-0.82-11.68-2.45-13.56C556.87,421.13,553.5,420.19,548.4,420.19z"/>
	<path d="M467.8,450.34v-13.78c0-7.16-0.82-11.68-2.45-13.56c-1.63-1.87-5-2.81-10.1-2.81h-16.71v46.41h16.71
		c5.14,0,8.51-0.92,10.13-2.76C466.99,462.01,467.8,457.51,467.8,450.34z"/>
	<polygon points="557.6,856.93 555.65,879.6 567.18,877.79 558.52,856.79 	"/>
	<path d="M802.97,301.67c1.81,2.71,3.51,4.18,5.08,4.38c1.58,0.21,4.24-0.94,7.99-3.45l7.3-4.87c3.77-2.52,5.86-4.55,6.29-6.09
		c0.42-1.54-0.28-3.67-2.09-6.38l-1.47-2.2c-1.8-2.69-3.48-4.14-5.05-4.34c-1.57-0.2-4.25,0.97-8.04,3.5l-7.29,4.87
		c-3.79,2.53-5.89,4.55-6.29,6.05c-0.4,1.5,0.3,3.61,2.12,6.32L802.97,301.67z"/>
	<polygon points="730.51,779.05 740.39,799.54 749.39,792.1 731.23,778.45 	"/>
	<path d="M368.88,147.98c2.23-0.85,3.6-1.81,4.11-2.9c0.51-1.09,0.36-2.68-0.43-4.78l-0.72-1.91c-0.8-2.12-1.77-3.42-2.88-3.9
		c-1.12-0.48-2.78-0.3-4.99,0.53l-7.46,2.83l4.92,12.95L368.88,147.98z"/>
	<polygon points="324.23,839.93 330.14,818 329.32,817.55 313.97,834.35 	"/>
	<path d="M816.99,692.53l-1.72-1.1c-1.91-1.22-3.46-1.69-4.64-1.41c-1.18,0.28-2.41,1.42-3.68,3.41l-4.28,6.74l11.69,7.44l4.28-6.74
		c1.28-2.01,1.8-3.61,1.56-4.78C819.95,694.92,818.89,693.73,816.99,692.53z"/>
	<path d="M500,11.57C230.68,11.57,11.57,230.68,11.57,500S230.68,988.43,500,988.43c269.32,0,488.43-219.11,488.43-488.43
		S769.32,11.57,500,11.57z M500,960.21C246.24,960.21,39.8,753.76,39.8,500S246.24,39.79,500,39.79
		c253.76,0,460.21,206.45,460.21,460.21S753.76,960.21,500,960.21z"/>
</g>
</svg>
